{"accessors" : [{"bufferView" : 0, "byteOffset" : 0, "componentType" : 5123, "count" : 2598, "type" : "SCALAR", "max" : [2568], "min" : [0]}, {"bufferView" : 1, "byteOffset" : 0, "componentType" : 5126, "count" : 2569, "type" : "VEC3", "max" : [0.16845299303531647, 0.5317209959030151, 0.1306699961423874], "min" : [-0.18100200593471527, -0.007486999966204166, -0.17529000341892242], "name" : "POSITION"}, {"bufferView" : 1, "byteOffset" : 12, "componentType" : 5126, "count" : 2569, "type" : "VEC3", "max" : [0.9981622099876404, 0.9997625350952148, 0.999862551689148], "min" : [-0.9959909915924072, -0.9952088594436646, -0.9936820864677429], "name" : "NORMAL"}], "asset" : {"generator" : "Aspose.3D 24.1.0", "version" : "2.0"}, "buffers" : [{"uri" : "data:application/octet-stream;base64,", "byteLength" : 67556}], "bufferViews" : [{"buffer" : 0, "byteOffset" : 0, "byteLength" : 5196, "target" : 34963}, {"buffer" : 0, "byteOffset" : 5200, "byteLength" : 62352, "byteStride" : 24, "target" : 34962}], "meshes" : [{"primitives" : [{"attributes" : {"POSITION" : 1, "NORMAL" : 2}, "indices" : 0, "mode" : 4}], "name" : ""}], "nodes" : [{"mesh" : 0, "name" : "Coral.002_CoralMesh.003"}], "scene" : 0, "scenes" : [{"nodes" : [0]}]}