{"accessors" : [{"bufferView" : 0, "byteOffset" : 0, "componentType" : 5123, "count" : 3996, "type" : "SCALAR", "max" : [3993], "min" : [0]}, {"bufferView" : 1, "byteOffset" : 0, "componentType" : 5126, "count" : 3994, "type" : "VEC3", "max" : [0.2211810052394867, 0.5070710182189941, 0.3873920142650604], "min" : [-0.23959800601005554, 0.000522000016644597, -0.2867560088634491], "name" : "POSITION"}, {"bufferView" : 1, "byteOffset" : 12, "componentType" : 5126, "count" : 3994, "type" : "VEC3", "max" : [0.9993446469306946, 0.9998564124107361, 0.9983281493186951], "min" : [-0.9968157410621643, -0.9932154417037964, -0.998896062374115], "name" : "NORMAL"}], "asset" : {"generator" : "Aspose.3D 24.1.0", "version" : "2.0"}, "buffers" : [{"uri" : "data:application/octet-stream;base64,", "byteLength" : 103904}], "bufferViews" : [{"buffer" : 0, "byteOffset" : 0, "byteLength" : 7992, "target" : 34963}, {"buffer" : 0, "byteOffset" : 7996, "byteLength" : 95904, "byteStride" : 24, "target" : 34962}], "meshes" : [{"primitives" : [{"attributes" : {"POSITION" : 1, "NORMAL" : 2}, "indices" : 0, "mode" : 4}], "name" : ""}], "nodes" : [{"mesh" : 0, "name" : "Coral.001_CoralMesh.002"}], "scene" : 0, "scenes" : [{"nodes" : [0]}]}