{"asset":{"version":"2.0","generator":"Blockbench 4.9.3 glTF exporter"},"scenes":[{"nodes":[9],"name":"blockbench_export"}],"scene":0,"nodes":[{"name":"sphere","mesh":0},{"rotation":[-0.129084727576758,0.009648780093993583,-0.01896549369513241,0.9914052371245736],"name":"sphere","mesh":1},{"rotation":[-0.10886687485196457,0,0,0.9940563382223196],"name":"sphere","mesh":2},{"name":"sphere","mesh":3},{"name":"sphere","mesh":4},{"rotation":[0.1521233861899167,0,0,0.9883615104677607],"name":"sphere","mesh":5},{"name":"sphere","mesh":6},{"name":"sphere","mesh":7},{"name":"sphere","mesh":8},{"children":[0,1,2,3,4,5,6,7,8]}],"bufferViews":[{"buffer":0,"byteOffset":0,"byteLength":3168,"target":34962,"byteStride":12},{"buffer":0,"byteOffset":3168,"byteLength":3168,"target":34962,"byteStride":12},{"buffer":0,"byteOffset":6336,"byteLength":2112,"target":34962,"byteStride":8},{"buffer":0,"byteOffset":8448,"byteLength":720,"target":34963},{"buffer":0,"byteOffset":9168,"byteLength":3168,"target":34962,"byteStride":12},{"buffer":0,"byteOffset":12336,"byteLength":3168,"target":34962,"byteStride":12},{"buffer":0,"byteOffset":15504,"byteLength":2112,"target":34962,"byteStride":8},{"buffer":0,"byteOffset":17616,"byteLength":720,"target":34963},{"buffer":0,"byteOffset":18336,"byteLength":3168,"target":34962,"byteStride":12},{"buffer":0,"byteOffset":21504,"byteLength":3168,"target":34962,"byteStride":12},{"buffer":0,"byteOffset":24672,"byteLength":2112,"target":34962,"byteStride":8},{"buffer":0,"byteOffset":26784,"byteLength":720,"target":34963},{"buffer":0,"byteOffset":27504,"byteLength":3168,"target":34962,"byteStride":12},{"buffer":0,"byteOffset":30672,"byteLength":3168,"target":34962,"byteStride":12},{"buffer":0,"byteOffset":33840,"byteLength":2112,"target":34962,"byteStride":8},{"buffer":0,"byteOffset":35952,"byteLength":720,"target":34963},{"buffer":0,"byteOffset":36672,"byteLength":3168,"target":34962,"byteStride":12},{"buffer":0,"byteOffset":39840,"byteLength":3168,"target":34962,"byteStride":12},{"buffer":0,"byteOffset":43008,"byteLength":2112,"target":34962,"byteStride":8},{"buffer":0,"byteOffset":45120,"byteLength":720,"target":34963},{"buffer":0,"byteOffset":45840,"byteLength":3168,"target":34962,"byteStride":12},{"buffer":0,"byteOffset":49008,"byteLength":3168,"target":34962,"byteStride":12},{"buffer":0,"byteOffset":52176,"byteLength":2112,"target":34962,"byteStride":8},{"buffer":0,"byteOffset":54288,"byteLength":720,"target":34963},{"buffer":0,"byteOffset":55008,"byteLength":3168,"target":34962,"byteStride":12},{"buffer":0,"byteOffset":58176,"byteLength":3168,"target":34962,"byteStride":12},{"buffer":0,"byteOffset":61344,"byteLength":2112,"target":34962,"byteStride":8},{"buffer":0,"byteOffset":63456,"byteLength":720,"target":34963},{"buffer":0,"byteOffset":64176,"byteLength":3168,"target":34962,"byteStride":12},{"buffer":0,"byteOffset":67344,"byteLength":3168,"target":34962,"byteStride":12},{"buffer":0,"byteOffset":70512,"byteLength":2112,"target":34962,"byteStride":8},{"buffer":0,"byteOffset":72624,"byteLength":720,"target":34963},{"buffer":0,"byteOffset":73344,"byteLength":3168,"target":34962,"byteStride":12},{"buffer":0,"byteOffset":76512,"byteLength":3168,"target":34962,"byteStride":12},{"buffer":0,"byteOffset":79680,"byteLength":2112,"target":34962,"byteStride":8},{"buffer":0,"byteOffset":81792,"byteLength":720,"target":34963}],"buffers":[{"byteLength":82512,"uri":"data:application/octet-stream;base64,"}],"accessors":[{"bufferView":0,"componentType":5126,"count":264,"max":[0.3125,1.0625,0.375],"min":[-0.3125,0.3125,-0.375],"type":"VEC3"},{"bufferView":1,"componentType":5126,"count":264,"max":[0.975965678691864,0.9659258127212524,0.9659258127212524],"min":[-0.975965678691864,-0.9659258127212524,-0.9659258127212524],"type":"VEC3"},{"bufferView":2,"componentType":5126,"count":264,"max":[0.5427183508872986,0.484375],"min":[0.003548372071236372,0],"type":"VEC2"},{"bufferView":3,"componentType":5123,"count":360,"max":[263],"min":[0],"type":"SCALAR"},{"bufferView":4,"componentType":5126,"count":264,"max":[-0.0625,0.8991906642913818,0.125],"min":[-0.4375,0.125,-0.25],"type":"VEC3"},{"bufferView":5,"componentType":5126,"count":264,"max":[0.9912384748458862,0.9031820297241211,0.9912384748458862],"min":[-0.9912384748458862,-0.8803447484970093,-0.9912384748458862],"type":"VEC3"},{"bufferView":6,"componentType":5126,"count":264,"max":[0.6098432540893555,0.8125],"min":[0.015153775922954082,0],"type":"VEC2"},{"bufferView":7,"componentType":5123,"count":360,"max":[263],"min":[0],"type":"SCALAR"},{"bufferView":8,"componentType":5126,"count":264,"max":[0.375,0.9057154655456543,0.0625],"min":[0,0.1875,-0.3125],"type":"VEC3"},{"bufferView":9,"componentType":5126,"count":264,"max":[0.9910592436790466,0.9935210943222046,0.9910592436790466],"min":[-0.9910592436790466,-0.8823633193969727,-0.9910592436790466],"type":"VEC3"},{"bufferView":10,"componentType":5126,"count":264,"max":[0.7180927991867065,0.78125],"min":[0,0],"type":"VEC2"},{"bufferView":11,"componentType":5123,"count":360,"max":[263],"min":[0],"type":"SCALAR"},{"bufferView":12,"componentType":5126,"count":264,"max":[-0.0625,0.375,0.0625],"min":[-0.4375,0,-0.3125],"type":"VEC3"},{"bufferView":13,"componentType":5126,"count":264,"max":[0.9659258127212524,0.9659258127212524,0.9659258127212524],"min":[-0.9659258127212524,-0.9659258127212524,-0.9659258127212524],"type":"VEC3"},{"bufferView":14,"componentType":5126,"count":264,"max":[0.672239363193512,0.5881432294845581],"min":[0.009493749588727951,0],"type":"VEC2"},{"bufferView":15,"componentType":5123,"count":360,"max":[263],"min":[0],"type":"SCALAR"},{"bufferView":16,"componentType":5126,"count":264,"max":[0.375,0.375,0],"min":[0,0,-0.375],"type":"VEC3"},{"bufferView":17,"componentType":5126,"count":264,"max":[0.9659258127212524,0.9659258127212524,0.9659258127212524],"min":[-0.9659258127212524,-0.9659258127212524,-0.9659258127212524],"type":"VEC3"},{"bufferView":18,"componentType":5126,"count":264,"max":[0.6722378730773926,0.5881439447402954],"min":[0.009493749588727951,0],"type":"VEC2"},{"bufferView":19,"componentType":5123,"count":360,"max":[263],"min":[0],"type":"SCALAR"},{"bufferView":20,"componentType":5126,"count":264,"max":[0.375,1.0625,0.5625],"min":[-0.375,0.4375,-0.4375],"type":"VEC3"},{"bufferView":21,"componentType":5126,"count":264,"max":[0.9519979357719421,0.9862654209136963,0.9190959930419922],"min":[-0.9519979357719421,-0.9862654209136963,-0.9190959930419922],"type":"VEC3"},{"bufferView":22,"componentType":5126,"count":264,"max":[0.5571142435073853,0.4920874238014221],"min":[0.000047207817260641605,0],"type":"VEC2"},{"bufferView":23,"componentType":5123,"count":360,"max":[263],"min":[0],"type":"SCALAR"},{"bufferView":24,"componentType":5126,"count":264,"max":[0.4375,0.9344573616981506,0.8125],"min":[0.0625,-0.0625,0.34599363803863525],"type":"VEC3"},{"bufferView":25,"componentType":5126,"count":264,"max":[1,0.9704509973526001,0.9911444187164307],"min":[-0.9949896931648254,-0.8814123868942261,-0.9938998222351074],"type":"VEC3"},{"bufferView":26,"componentType":5126,"count":264,"max":[0.78125,0.9375],"min":[0.000868455390445888,0],"type":"VEC2"},{"bufferView":27,"componentType":5123,"count":360,"max":[263],"min":[0],"type":"SCALAR"},{"bufferView":28,"componentType":5126,"count":264,"max":[-0.0625,0.9344573616981506,0.8125],"min":[-0.4375,-0.0625,0.1398688405752182],"type":"VEC3"},{"bufferView":29,"componentType":5126,"count":264,"max":[0.9996263384819031,0.9704509973526001,0.9911444187164307],"min":[-0.9949896931648254,-0.8814123868942261,-0.9922674894332886],"type":"VEC3"},{"bufferView":30,"componentType":5126,"count":264,"max":[0.9866617321968079,0.9480828642845154],"min":[0.00012657901970669627,0],"type":"VEC2"},{"bufferView":31,"componentType":5123,"count":360,"max":[263],"min":[0],"type":"SCALAR"},{"bufferView":32,"componentType":5126,"count":264,"max":[0.25,1.375,0],"min":[-0.25,0.875,-0.5],"type":"VEC3"},{"bufferView":33,"componentType":5126,"count":264,"max":[0.9659258127212524,0.9659258127212524,0.9659258127212524],"min":[-0.9659258127212524,-0.9659258127212524,-0.9659258127212524],"type":"VEC3"},{"bufferView":34,"componentType":5126,"count":264,"max":[0.9420173168182373,0.71875],"min":[0.0024101033341139555,0],"type":"VEC2"},{"bufferView":35,"componentType":5123,"count":360,"max":[263],"min":[0],"type":"SCALAR"}],"materials":[{"pbrMetallicRoughness":{"metallicFactor":0,"roughnessFactor":1,"baseColorTexture":{"index":0}},"alphaMode":"MASK","alphaCutoff":0.05,"doubleSided":true},{"pbrMetallicRoughness":{"metallicFactor":0,"roughnessFactor":1,"baseColorTexture":{"index":1}},"alphaMode":"MASK","alphaCutoff":0.05,"doubleSided":true},{"pbrMetallicRoughness":{"metallicFactor":0,"roughnessFactor":1,"baseColorTexture":{"index":2}},"alphaMode":"MASK","alphaCutoff":0.05,"doubleSided":true},{"pbrMetallicRoughness":{"metallicFactor":0,"roughnessFactor":1,"baseColorTexture":{"index":3}},"alphaMode":"MASK","alphaCutoff":0.05,"doubleSided":true},{"pbrMetallicRoughness":{"metallicFactor":0,"roughnessFactor":1,"baseColorTexture":{"index":4}},"alphaMode":"MASK","alphaCutoff":0.05,"doubleSided":true},{"pbrMetallicRoughness":{"metallicFactor":0,"roughnessFactor":1,"baseColorTexture":{"index":5}},"alphaMode":"MASK","alphaCutoff":0.05,"doubleSided":true},{"pbrMetallicRoughness":{"metallicFactor":0,"roughnessFactor":1,"baseColorTexture":{"index":6}},"alphaMode":"MASK","alphaCutoff":0.05,"doubleSided":true},{"pbrMetallicRoughness":{"metallicFactor":0,"roughnessFactor":1,"baseColorTexture":{"index":7}},"alphaMode":"MASK","alphaCutoff":0.05,"doubleSided":true},{"pbrMetallicRoughness":{"metallicFactor":0,"roughnessFactor":1,"baseColorTexture":{"index":8}},"alphaMode":"MASK","alphaCutoff":0.05,"doubleSided":true}],"textures":[{"sampler":0,"source":0},{"sampler":1,"source":1},{"sampler":2,"source":2},{"sampler":3,"source":3},{"sampler":4,"source":4},{"sampler":5,"source":5},{"sampler":6,"source":6},{"sampler":7,"source":7},{"sampler":8,"source":8}],"samplers":[{"magFilter":9728,"minFilter":9728,"wrapS":33071,"wrapT":33071},{"magFilter":9728,"minFilter":9728,"wrapS":33071,"wrapT":33071},{"magFilter":9728,"minFilter":9728,"wrapS":33071,"wrapT":33071},{"magFilter":9728,"minFilter":9728,"wrapS":33071,"wrapT":33071},{"magFilter":9728,"minFilter":9728,"wrapS":33071,"wrapT":33071},{"magFilter":9728,"minFilter":9728,"wrapS":33071,"wrapT":33071},{"magFilter":9728,"minFilter":9728,"wrapS":33071,"wrapT":33071},{"magFilter":9728,"minFilter":9728,"wrapS":33071,"wrapT":33071},{"magFilter":9728,"minFilter":9728,"wrapS":33071,"wrapT":33071}],"images":[{"mimeType":"image/png","uri":"data:image/png;base64,"},{"mimeType":"image/png","uri":"data:image/png;base64,"},{"mimeType":"image/png","uri":"data:image/png;base64,"},{"mimeType":"image/png","uri":"data:image/png;base64,"},{"mimeType":"image/png","uri":"data:image/png;base64,"},{"mimeType":"image/png","uri":"data:image/png;base64,"},{"mimeType":"image/png","uri":"data:image/png;base64,"},{"mimeType":"image/png","uri":"data:image/png;base64,"},{"mimeType":"image/png","uri":"data:image/png;base64,"}],"meshes":[{"primitives":[{"mode":4,"attributes":{"POSITION":0,"NORMAL":1,"TEXCOORD_0":2},"indices":3,"material":0}]},{"primitives":[{"mode":4,"attributes":{"POSITION":4,"NORMAL":5,"TEXCOORD_0":6},"indices":7,"material":1}]},{"primitives":[{"mode":4,"attributes":{"POSITION":8,"NORMAL":9,"TEXCOORD_0":10},"indices":11,"material":2}]},{"primitives":[{"mode":4,"attributes":{"POSITION":12,"NORMAL":13,"TEXCOORD_0":14},"indices":15,"material":3}]},{"primitives":[{"mode":4,"attributes":{"POSITION":16,"NORMAL":17,"TEXCOORD_0":18},"indices":19,"material":4}]},{"primitives":[{"mode":4,"attributes":{"POSITION":20,"NORMAL":21,"TEXCOORD_0":22},"indices":23,"material":5}]},{"primitives":[{"mode":4,"attributes":{"POSITION":24,"NORMAL":25,"TEXCOORD_0":26},"indices":27,"material":6}]},{"primitives":[{"mode":4,"attributes":{"POSITION":28,"NORMAL":29,"TEXCOORD_0":30},"indices":31,"material":7}]},{"primitives":[{"mode":4,"attributes":{"POSITION":32,"NORMAL":33,"TEXCOORD_0":34},"indices":35,"material":8}]}]}