{
    "asset" : {
        "generator" : "Khronos glTF Blender I/O v1.8.19",
        "version" : "2.0"
    },
    "scene" : 0,
    "scenes" : [
        {
            "name" : "Scene",
            "nodes" : [
                0
            ]
        }
    ],
    "nodes" : [
        {
            "mesh" : 0,
            "name" : "Palm_Tree_M"
        }
    ],
    "materials" : [
        {
            "doubleSided" : true,
            "name" : "Leaves",
            "pbrMetallicRoughness" : {
                "baseColorFactor" : [
                    0.1858479231595993,
                    0.4969206154346466,
                    0.02344711497426033,
                    1
                ],
                "metallicFactor" : 0,
                "roughnessFactor" : 0.3695652186870575
            }
        },
        {
            "doubleSided" : true,
            "name" : "Bark",
            "pbrMetallicRoughness" : {
                "baseColorFactor" : [
                    0.0835307240486145,
                    0.05086654797196388,
                    0.00404909485951066,
                    1
                ],
                "metallicFactor" : 0,
                "roughnessFactor" : 0.804347813129425
            }
        }
    ],
    "meshes" : [
        {
            "name" : "default.005",
            "primitives" : [
                {
                    "attributes" : {
                        "POSITION" : 0,
                        "NORMAL" : 1
                    },
                    "indices" : 2,
                    "material" : 0
                },
                {
                    "attributes" : {
                        "POSITION" : 3,
                        "NORMAL" : 4
                    },
                    "indices" : 5,
                    "material" : 1
                }
            ]
        }
    ],
    "accessors" : [
        {
            "bufferView" : 0,
            "componentType" : 5126,
            "count" : 1350,
            "max" : [
                1.684219241142273,
                4.000115871429443,
                1.7195380926132202
            ],
            "min" : [
                -1.803222417831421,
                2.824080228805542,
                -1.8549724817276
            ],
            "type" : "VEC3"
        },
        {
            "bufferView" : 1,
            "componentType" : 5126,
            "count" : 1350,
            "type" : "VEC3"
        },
        {
            "bufferView" : 2,
            "componentType" : 5123,
            "count" : 1944,
            "type" : "SCALAR"
        },
        {
            "bufferView" : 3,
            "componentType" : 5126,
            "count" : 246,
            "max" : [
                0.19554319977760315,
                3.1926069259643555,
                0.14094695448875427
            ],
            "min" : [
                -0.2037537395954132,
                -1.562253260090074e-07,
                -0.24990108609199524
            ],
            "type" : "VEC3"
        },
        {
            "bufferView" : 4,
            "componentType" : 5126,
            "count" : 246,
            "type" : "VEC3"
        },
        {
            "bufferView" : 5,
            "componentType" : 5123,
            "count" : 408,
            "type" : "SCALAR"
        }
    ],
    "bufferViews" : [
        {
            "buffer" : 0,
            "byteLength" : 16200,
            "byteOffset" : 0
        },
        {
            "buffer" : 0,
            "byteLength" : 16200,
            "byteOffset" : 16200
        },
        {
            "buffer" : 0,
            "byteLength" : 3888,
            "byteOffset" : 32400
        },
        {
            "buffer" : 0,
            "byteLength" : 2952,
            "byteOffset" : 36288
        },
        {
            "buffer" : 0,
            "byteLength" : 2952,
            "byteOffset" : 39240
        },
        {
            "buffer" : 0,
            "byteLength" : 816,
            "byteOffset" : 42192
        }
    ],
    "buffers" : [
        {
            "byteLength" : 43008,
            "uri" : "data:application/octet-stream;base64,"
        }
    ]
}
