{"asset":{"version":"2.0","generator":"Blockbench 4.9.3 glTF exporter"},"scenes":[{"nodes":[10],"name":"blockbench_export"}],"scene":0,"nodes":[{"rotation":[0,0,0.17364817766693033,0.984807753012208],"translation":[-0.027305282869509465,1.5983271476311907,-0.20813293868263716],"name":"sphere","mesh":0},{"rotation":[0.04151095180787886,-0.10948236318921246,-0.6674344239919379,0.7354058353732716],"translation":[0.07941319669189373,0.9478686719106314,-0.41486167579950145],"name":"pyramid","mesh":1},{"rotation":[0.7358872273772167,-0.6756975481691562,0.02979801297294305,0.03185734458689373],"translation":[-0.17356014051076252,0.9734147152515781,-0.36068165939943586],"name":"pyramid","mesh":2},{"rotation":[0,0,-0.2798290140309921,0.9600498543859287],"translation":[0.297046412810902,1.5709320652375225,-0.2081329386826371],"name":"sphere","mesh":3},{"translation":[0.12874990189999577,0.5333244592993607,-0.020632938682637183],"name":"sphere","mesh":4},{"translation":[0.09159018728922552,1.24758716119158,-0.25],"name":"sphere","mesh":5},{"name":"cylinder","mesh":6},{"name":"cylinder","mesh":7},{"rotation":[0,0,-0.21643961393810288,0.9762960071199334],"translation":[-0.3125,0.4375,-0.6875],"name":"cylinder","mesh":8},{"rotation":[0,0,0.3007057995042731,0.9537169507482269],"translation":[0.8203847337958123,-0.09077282717587432,-0.31250000000000006],"name":"cylinder","mesh":9},{"children":[0,1,2,3,4,5,6,7,8,9]}],"bufferViews":[{"buffer":0,"byteOffset":0,"byteLength":3168,"target":34962,"byteStride":12},{"buffer":0,"byteOffset":3168,"byteLength":3168,"target":34962,"byteStride":12},{"buffer":0,"byteOffset":6336,"byteLength":2112,"target":34962,"byteStride":8},{"buffer":0,"byteOffset":8448,"byteLength":720,"target":34963},{"buffer":0,"byteOffset":9168,"byteLength":192,"target":34962,"byteStride":12},{"buffer":0,"byteOffset":9360,"byteLength":192,"target":34962,"byteStride":12},{"buffer":0,"byteOffset":9552,"byteLength":128,"target":34962,"byteStride":8},{"buffer":0,"byteOffset":9680,"byteLength":36,"target":34963},{"buffer":0,"byteOffset":9716,"byteLength":192,"target":34962,"byteStride":12},{"buffer":0,"byteOffset":9908,"byteLength":192,"target":34962,"byteStride":12},{"buffer":0,"byteOffset":10100,"byteLength":128,"target":34962,"byteStride":8},{"buffer":0,"byteOffset":10228,"byteLength":36,"target":34963},{"buffer":0,"byteOffset":10264,"byteLength":3168,"target":34962,"byteStride":12},{"buffer":0,"byteOffset":13432,"byteLength":3168,"target":34962,"byteStride":12},{"buffer":0,"byteOffset":16600,"byteLength":2112,"target":34962,"byteStride":8},{"buffer":0,"byteOffset":18712,"byteLength":720,"target":34963},{"buffer":0,"byteOffset":19432,"byteLength":3168,"target":34962,"byteStride":12},{"buffer":0,"byteOffset":22600,"byteLength":3168,"target":34962,"byteStride":12},{"buffer":0,"byteOffset":25768,"byteLength":2112,"target":34962,"byteStride":8},{"buffer":0,"byteOffset":27880,"byteLength":720,"target":34963},{"buffer":0,"byteOffset":28600,"byteLength":3168,"target":34962,"byteStride":12},{"buffer":0,"byteOffset":31768,"byteLength":3168,"target":34962,"byteStride":12},{"buffer":0,"byteOffset":34936,"byteLength":2112,"target":34962,"byteStride":8},{"buffer":0,"byteOffset":37048,"byteLength":720,"target":34963},{"buffer":0,"byteOffset":37768,"byteLength":1440,"target":34962,"byteStride":12},{"buffer":0,"byteOffset":39208,"byteLength":1440,"target":34962,"byteStride":12},{"buffer":0,"byteOffset":40648,"byteLength":960,"target":34962,"byteStride":8},{"buffer":0,"byteOffset":41608,"byteLength":288,"target":34963},{"buffer":0,"byteOffset":41896,"byteLength":1440,"target":34962,"byteStride":12},{"buffer":0,"byteOffset":43336,"byteLength":1440,"target":34962,"byteStride":12},{"buffer":0,"byteOffset":44776,"byteLength":960,"target":34962,"byteStride":8},{"buffer":0,"byteOffset":45736,"byteLength":288,"target":34963},{"buffer":0,"byteOffset":46024,"byteLength":1440,"target":34962,"byteStride":12},{"buffer":0,"byteOffset":47464,"byteLength":1440,"target":34962,"byteStride":12},{"buffer":0,"byteOffset":48904,"byteLength":960,"target":34962,"byteStride":8},{"buffer":0,"byteOffset":49864,"byteLength":288,"target":34963},{"buffer":0,"byteOffset":50152,"byteLength":1440,"target":34962,"byteStride":12},{"buffer":0,"byteOffset":51592,"byteLength":1440,"target":34962,"byteStride":12},{"buffer":0,"byteOffset":53032,"byteLength":960,"target":34962,"byteStride":8},{"buffer":0,"byteOffset":53992,"byteLength":288,"target":34963}],"buffers":[{"byteLength":54280,"uri":"data:application/octet-stream;base64,"}],"accessors":[{"bufferView":0,"componentType":5126,"count":264,"max":[-0.03125,0.0625,0],"min":[-0.09375,-0.0625,0],"type":"VEC3"},{"bufferView":1,"componentType":5126,"count":264,"max":[1,0,1],"min":[0,0,-1],"type":"VEC3"},{"bufferView":2,"componentType":5126,"count":264,"max":[0.26794999837875366,0.25882500410079956],"min":[0,0],"type":"VEC2"},{"bufferView":3,"componentType":5123,"count":360,"max":[263],"min":[0],"type":"SCALAR"},{"bufferView":4,"componentType":5126,"count":16,"max":[0.078125,0.2906250059604645,0.015625],"min":[-0.296875,0.10312499850988388,-0.171875],"type":"VEC3"},{"bufferView":5,"componentType":5126,"count":16,"max":[0.7071067690849304,0.7071067690849304,0.8944271802902222],"min":[-0.7071067690849304,-1,-0.8944271802902222],"type":"VEC3"},{"bufferView":6,"componentType":5126,"count":16,"max":[0.4375,0.4375],"min":[0,0],"type":"VEC2"},{"bufferView":7,"componentType":5123,"count":18,"max":[15],"min":[0],"type":"SCALAR"},{"bufferView":8,"componentType":5126,"count":16,"max":[0.09375,-0.02187499962747097,0.203125],"min":[-0.28125,-0.20937499403953552,0.015625],"type":"VEC3"},{"bufferView":9,"componentType":5126,"count":16,"max":[0.7071067690849304,0.7071067690849304,0.8944271802902222],"min":[-0.7071067690849304,-1,-0.8944271802902222],"type":"VEC3"},{"bufferView":10,"componentType":5126,"count":16,"max":[0.4375,0.4375],"min":[0,0],"type":"VEC2"},{"bufferView":11,"componentType":5123,"count":18,"max":[15],"min":[0],"type":"SCALAR"},{"bufferView":12,"componentType":5126,"count":264,"max":[0.03125,0.0625,0],"min":[-0.03125,-0.0625,0],"type":"VEC3"},{"bufferView":13,"componentType":5126,"count":264,"max":[1,0,1],"min":[0,0,-1],"type":"VEC3"},{"bufferView":14,"componentType":5126,"count":264,"max":[0.26794999837875366,0.25882500410079956],"min":[0,0],"type":"VEC2"},{"bufferView":15,"componentType":5123,"count":360,"max":[263],"min":[0],"type":"SCALAR"},{"bufferView":16,"componentType":5126,"count":264,"max":[0.375,0.5625,0.3125],"min":[-0.5,-0.4375,-0.4375],"type":"VEC3"},{"bufferView":17,"componentType":5126,"count":264,"max":[0.9735988974571228,0.9561718106269836,0.9803988933563232],"min":[-0.9735988974571228,-0.9561718106269836,-0.9803988933563232],"type":"VEC3"},{"bufferView":18,"componentType":5126,"count":264,"max":[0.26794999837875366,0.25882500410079956],"min":[0,0],"type":"VEC2"},{"bufferView":19,"componentType":5123,"count":360,"max":[263],"min":[0],"type":"SCALAR"},{"bufferView":20,"componentType":5126,"count":264,"max":[0.34375,0.3125,0.3125],"min":[-0.34375,-0.3125,-0.3125],"type":"VEC3"},{"bufferView":21,"componentType":5126,"count":264,"max":[0.9592026472091675,0.9715901613235474,0.9659258127212524],"min":[-0.9592026472091675,-0.9715901613235474,-0.9659258127212524],"type":"VEC3"},{"bufferView":22,"componentType":5126,"count":264,"max":[0.26794999837875366,0.25882500410079956],"min":[0,0],"type":"VEC2"},{"bufferView":23,"componentType":5123,"count":360,"max":[263],"min":[0],"type":"SCALAR"},{"bufferView":24,"componentType":5126,"count":120,"max":[-0.0625,0.5,-0.0625],"min":[-0.3125,0,-0.3125],"type":"VEC3"},{"bufferView":25,"componentType":5126,"count":120,"max":[1,1,1],"min":[-1,-1,-1],"type":"VEC3"},{"bufferView":26,"componentType":5126,"count":120,"max":[0.5176382064819336,0.5176382064819336],"min":[0,0],"type":"VEC2"},{"bufferView":27,"componentType":5123,"count":144,"max":[119],"min":[0],"type":"SCALAR"},{"bufferView":28,"componentType":5126,"count":120,"max":[0.4375,0.5,-0.0625],"min":[0.1875,0,-0.3125],"type":"VEC3"},{"bufferView":29,"componentType":5126,"count":120,"max":[1,1,1],"min":[-1,-1,-1],"type":"VEC3"},{"bufferView":30,"componentType":5126,"count":120,"max":[0.5176382064819336,0.5176382064819336],"min":[0,0],"type":"VEC2"},{"bufferView":31,"componentType":5123,"count":144,"max":[119],"min":[0],"type":"SCALAR"},{"bufferView":32,"componentType":5126,"count":120,"max":[-0.0625,0.328125,0.640625],"min":[-0.1875,-0.171875,0.515625],"type":"VEC3"},{"bufferView":33,"componentType":5126,"count":120,"max":[1,1,1],"min":[-1,-1,-1],"type":"VEC3"},{"bufferView":34,"componentType":5126,"count":120,"max":[0.5176382064819336,0.5176382064819336],"min":[0,0],"type":"VEC2"},{"bufferView":35,"componentType":5123,"count":144,"max":[119],"min":[0],"type":"SCALAR"},{"bufferView":36,"componentType":5126,"count":120,"max":[0.234375,0.9375,0.25],"min":[0.109375,0.4375,0.125],"type":"VEC3"},{"bufferView":37,"componentType":5126,"count":120,"max":[1,1,1],"min":[-1,-1,-1],"type":"VEC3"},{"bufferView":38,"componentType":5126,"count":120,"max":[0.5176382064819336,0.5176382064819336],"min":[0,0],"type":"VEC2"},{"bufferView":39,"componentType":5123,"count":144,"max":[119],"min":[0],"type":"SCALAR"}],"materials":[{"pbrMetallicRoughness":{"metallicFactor":0,"roughnessFactor":1},"alphaMode":"MASK","alphaCutoff":0.05,"doubleSided":true},{"pbrMetallicRoughness":{"metallicFactor":0,"roughnessFactor":1},"alphaMode":"MASK","alphaCutoff":0.05,"doubleSided":true}],"meshes":[{"primitives":[{"mode":4,"attributes":{"POSITION":0,"NORMAL":1,"TEXCOORD_0":2},"indices":3,"material":0}]},{"primitives":[{"mode":4,"attributes":{"POSITION":4,"NORMAL":5,"TEXCOORD_0":6},"indices":7,"material":0}]},{"primitives":[{"mode":4,"attributes":{"POSITION":8,"NORMAL":9,"TEXCOORD_0":10},"indices":11,"material":0}]},{"primitives":[{"mode":4,"attributes":{"POSITION":12,"NORMAL":13,"TEXCOORD_0":14},"indices":15,"material":0}]},{"primitives":[{"mode":4,"attributes":{"POSITION":16,"NORMAL":17,"TEXCOORD_0":18},"indices":19,"material":1}]},{"primitives":[{"mode":4,"attributes":{"POSITION":20,"NORMAL":21,"TEXCOORD_0":22},"indices":23,"material":0}]},{"primitives":[{"mode":4,"attributes":{"POSITION":24,"NORMAL":25,"TEXCOORD_0":26},"indices":27,"material":1}]},{"primitives":[{"mode":4,"attributes":{"POSITION":28,"NORMAL":29,"TEXCOORD_0":30},"indices":31,"material":1}]},{"primitives":[{"mode":4,"attributes":{"POSITION":32,"NORMAL":33,"TEXCOORD_0":34},"indices":35,"material":1}]},{"primitives":[{"mode":4,"attributes":{"POSITION":36,"NORMAL":37,"TEXCOORD_0":38},"indices":39,"material":1}]}]}