{"asset":{"version":"2.0","generator":"Blockbench 4.9.1 glTF exporter"},"scenes":[{"nodes":[1,5,7,9],"name":"blockbench_export"}],"scene":0,"nodes":[{"name":"head"},{"translation":[2.529338745617796e-17,1.703125,-8.953411488912552e-18],"name":"head","mesh":0,"children":[0],"skin":0},{"translation":[0.546875,0.390625,0],"name":"leftarm"},{"translation":[-0.5424053596117877,0.3656348305080799,0.045554061789342404],"name":"rightarm"},{"name":"torso","children":[2,3]},{"translation":[4.185719871066619e-17,1.0625,-0.25],"name":"torso","mesh":1,"children":[4],"skin":1},{"name":"rightleg"},{"translation":[-0.25,0.31814975635519216,-0.1685120073464496],"name":"rightleg","mesh":2,"children":[6],"skin":2},{"name":"leftleg"},{"translation":[0.25,0.31814975635519216,-0.1685120073464496],"name":"leftleg","mesh":3,"children":[8],"skin":3}],"bufferViews":[{"buffer":0,"byteOffset":0,"byteLength":3168,"target":34962,"byteStride":12},{"buffer":0,"byteOffset":3168,"byteLength":3168,"target":34962,"byteStride":12},{"buffer":0,"byteOffset":6336,"byteLength":2112,"target":34962,"byteStride":8},{"buffer":0,"byteOffset":8448,"byteLength":2112,"target":34962,"byteStride":8},{"buffer":0,"byteOffset":10560,"byteLength":4224,"target":34962,"byteStride":16},{"buffer":0,"byteOffset":14784,"byteLength":720,"target":34963},{"buffer":0,"byteOffset":15504,"byteLength":21600,"target":34962,"byteStride":12},{"buffer":0,"byteOffset":37104,"byteLength":21600,"target":34962,"byteStride":12},{"buffer":0,"byteOffset":58704,"byteLength":14400,"target":34962,"byteStride":8},{"buffer":0,"byteOffset":73104,"byteLength":14400,"target":34962,"byteStride":8},{"buffer":0,"byteOffset":87504,"byteLength":28800,"target":34962,"byteStride":16},{"buffer":0,"byteOffset":116304,"byteLength":4752,"target":34963},{"buffer":0,"byteOffset":121056,"byteLength":3168,"target":34962,"byteStride":12},{"buffer":0,"byteOffset":124224,"byteLength":3168,"target":34962,"byteStride":12},{"buffer":0,"byteOffset":127392,"byteLength":2112,"target":34962,"byteStride":8},{"buffer":0,"byteOffset":129504,"byteLength":2112,"target":34962,"byteStride":8},{"buffer":0,"byteOffset":131616,"byteLength":4224,"target":34962,"byteStride":16},{"buffer":0,"byteOffset":135840,"byteLength":720,"target":34963},{"buffer":0,"byteOffset":136560,"byteLength":3168,"target":34962,"byteStride":12},{"buffer":0,"byteOffset":139728,"byteLength":3168,"target":34962,"byteStride":12},{"buffer":0,"byteOffset":142896,"byteLength":2112,"target":34962,"byteStride":8},{"buffer":0,"byteOffset":145008,"byteLength":2112,"target":34962,"byteStride":8},{"buffer":0,"byteOffset":147120,"byteLength":4224,"target":34962,"byteStride":16},{"buffer":0,"byteOffset":151344,"byteLength":720,"target":34963},{"buffer":0,"byteOffset":152064,"byteLength":64},{"buffer":0,"byteOffset":152128,"byteLength":192},{"buffer":0,"byteOffset":152320,"byteLength":64},{"buffer":0,"byteOffset":152384,"byteLength":64},{"buffer":0,"byteOffset":152448,"byteLength":20},{"buffer":0,"byteOffset":152468,"byteLength":80},{"buffer":0,"byteOffset":152548,"byteLength":20},{"buffer":0,"byteOffset":152568,"byteLength":80},{"buffer":0,"byteOffset":152648,"byteLength":148},{"buffer":0,"byteOffset":152796,"byteLength":444},{"buffer":0,"byteOffset":153240,"byteLength":20},{"buffer":0,"byteOffset":153260,"byteLength":60},{"buffer":0,"byteOffset":153320,"byteLength":156},{"buffer":0,"byteOffset":153476,"byteLength":468},{"buffer":0,"byteOffset":153944,"byteLength":20},{"buffer":0,"byteOffset":153964,"byteLength":80},{"buffer":0,"byteOffset":154044,"byteLength":20},{"buffer":0,"byteOffset":154064,"byteLength":80},{"buffer":0,"byteOffset":154144,"byteLength":108},{"buffer":0,"byteOffset":154252,"byteLength":432},{"buffer":0,"byteOffset":154684,"byteLength":200},{"buffer":0,"byteOffset":154884,"byteLength":600},{"buffer":0,"byteOffset":155484,"byteLength":20},{"buffer":0,"byteOffset":155504,"byteLength":60},{"buffer":0,"byteOffset":155564,"byteLength":168},{"buffer":0,"byteOffset":155732,"byteLength":672},{"buffer":0,"byteOffset":156404,"byteLength":208},{"buffer":0,"byteOffset":156612,"byteLength":624}],"buffers":[{"byteLength":157236,"uri":"data:application/octet-stream;base64,"}],"accessors":[{"bufferView":0,"componentType":5126,"count":264,"max":[0.4375,0.484375,0.4375],"min":[-0.4375,-0.390625,-0.4375],"type":"VEC3"},{"bufferView":1,"componentType":5126,"count":264,"max":[0.9659258127212524,0.9659258127212524,0.9659258127212524],"min":[-0.9659258127212524,-0.9659258127212524,-0.9659258127212524],"type":"VEC3"},{"bufferView":2,"componentType":5126,"count":264,"max":[0.6332372426986694,0.59375],"min":[0.002466937294229865,0],"type":"VEC2"},{"bufferView":3,"componentType":5123,"count":264,"max":[0,0,0,0],"min":[0,0,0,0],"type":"VEC4"},{"bufferView":4,"componentType":5126,"count":264,"max":[0,1,0,0],"min":[0,1,0,0],"type":"VEC4"},{"bufferView":5,"componentType":5123,"count":360,"max":[263],"min":[0],"type":"SCALAR"},{"bufferView":6,"componentType":5126,"count":1800,"max":[0.8368097543716431,0.9375,0.6740164160728455],"min":[-0.776294469833374,-0.9374999403953552,-0.4999999701976776],"type":"VEC3"},{"bufferView":7,"componentType":5126,"count":1800,"max":[0.9995922446250916,0.9971845746040344,0.9899426698684692],"min":[-0.9987645149230957,-0.9968396425247192,-0.992368221282959],"type":"VEC3"},{"bufferView":8,"componentType":5126,"count":1800,"max":[0.9583691954612732,0.90625],"min":[0,0],"type":"VEC2"},{"bufferView":9,"componentType":5123,"count":1800,"max":[0,2,0,0],"min":[0,0,0,0],"type":"VEC4"},{"bufferView":10,"componentType":5126,"count":1800,"max":[0,1,0,0],"min":[0,1,0,0],"type":"VEC4"},{"bufferView":11,"componentType":5123,"count":2376,"max":[1799],"min":[0],"type":"SCALAR"},{"bufferView":12,"componentType":5126,"count":264,"max":[0.1875,0.09796180576086044,0.21538932621479034],"min":[-0.1875,-0.34796181321144104,-0.21538931131362915],"type":"VEC3"},{"bufferView":13,"componentType":5126,"count":264,"max":[0.9803988933563232,0.9828385710716248,0.9951760172843933],"min":[-0.9803988933563232,-0.9828385710716248,-0.9951760172843933],"type":"VEC3"},{"bufferView":14,"componentType":5126,"count":264,"max":[0.06698749959468842,0.06470626592636108],"min":[0,0],"type":"VEC2"},{"bufferView":15,"componentType":5123,"count":264,"max":[0,0,0,0],"min":[0,0,0,0],"type":"VEC4"},{"bufferView":16,"componentType":5126,"count":264,"max":[0,1,0,0],"min":[0,1,0,0],"type":"VEC4"},{"bufferView":17,"componentType":5123,"count":360,"max":[263],"min":[0],"type":"SCALAR"},{"bufferView":18,"componentType":5126,"count":264,"max":[0.1875,0.09796181321144104,0.21538932621479034],"min":[-0.1875,-0.34796178340911865,-0.21538928151130676],"type":"VEC3"},{"bufferView":19,"componentType":5126,"count":264,"max":[0.9803988933563232,0.9828385710716248,0.9951760172843933],"min":[-0.9803988933563232,-0.9828385710716248,-0.9951760172843933],"type":"VEC3"},{"bufferView":20,"componentType":5126,"count":264,"max":[0.06698749959468842,0.06470626592636108],"min":[0,0],"type":"VEC2"},{"bufferView":21,"componentType":5123,"count":264,"max":[0,0,0,0],"min":[0,0,0,0],"type":"VEC4"},{"bufferView":22,"componentType":5126,"count":264,"max":[0,1,0,0],"min":[0,1,0,0],"type":"VEC4"},{"bufferView":23,"componentType":5123,"count":360,"max":[263],"min":[0],"type":"SCALAR"},{"bufferView":24,"componentType":5126,"count":1,"max":[1,0,0,0,0,1,0,0,0,0,1,0,0,0,0,1],"min":[1,0,0,0,0,1,0,0,0,0,1,0,0,0,0,1],"type":"MAT4"},{"bufferView":25,"componentType":5126,"count":3,"max":[1,0,0,0,0,1,0,0,0,0,1,0,0.542405366897583,0,0,1],"min":[1,0,0,0,0,1,0,0,0,0,1,0,-0.546875,-0.390625,-0.045554060488939285,1],"type":"MAT4"},{"bufferView":26,"componentType":5126,"count":1,"max":[1,0,0,0,0,1,0,0,0,0,1,0,0,0,0,1],"min":[1,0,0,0,0,1,0,0,0,0,1,0,0,0,0,1],"type":"MAT4"},{"bufferView":27,"componentType":5126,"count":1,"max":[1,0,0,0,0,1,0,0,0,0,1,0,0,0,0,1],"min":[1,0,0,0,0,1,0,0,0,0,1,0,0,0,0,1],"type":"MAT4"},{"bufferView":28,"componentType":5126,"count":5,"max":[2],"min":[0],"type":"SCALAR"},{"bufferView":29,"componentType":5126,"count":5,"max":[0,0.004748706240206957,0.0866377204656601,1],"min":[-0.10876325517892838,0,0,0.990273654460907],"type":"VEC4"},{"bufferView":30,"componentType":5126,"count":5,"max":[2],"min":[0],"type":"SCALAR"},{"bufferView":31,"componentType":5126,"count":5,"max":[0,0.002852844540029764,0,1],"min":[-0.04352599382400513,0,-0.06534087657928467,0.9969092011451721],"type":"VEC4"},{"bufferView":32,"componentType":5126,"count":37,"max":[2],"min":[0],"type":"SCALAR"},{"bufferView":33,"componentType":5126,"count":37,"max":[4.185719849720022e-17,1.0625,-0.25],"min":[4.185719849720022e-17,1,-0.25],"type":"VEC3"},{"bufferView":34,"componentType":5126,"count":5,"max":[2],"min":[0],"type":"SCALAR"},{"bufferView":35,"componentType":5126,"count":5,"max":[1.024999976158142,1,1],"min":[0.9750000238418579,1,1],"type":"VEC3"},{"bufferView":36,"componentType":5126,"count":39,"max":[2.0833332538604736],"min":[0],"type":"SCALAR"},{"bufferView":37,"componentType":5126,"count":39,"max":[2.5293388149942346e-17,1.703125,-8.953411222080097e-18],"min":[2.5293388149942346e-17,1.640625,-8.953411222080097e-18],"type":"VEC3"},{"bufferView":38,"componentType":5126,"count":5,"max":[2],"min":[0],"type":"SCALAR"},{"bufferView":39,"componentType":5126,"count":5,"max":[0,0.004748706240206957,0.0866377204656601,1],"min":[-0.10876325517892838,0,0,0.990273654460907],"type":"VEC4"},{"bufferView":40,"componentType":5126,"count":5,"max":[2],"min":[0],"type":"SCALAR"},{"bufferView":41,"componentType":5126,"count":5,"max":[0,0.002852844540029764,0,1],"min":[-0.04352599382400513,0,-0.06534087657928467,0.9969092011451721],"type":"VEC4"},{"bufferView":42,"componentType":5126,"count":27,"max":[2.375],"min":[0],"type":"SCALAR"},{"bufferView":43,"componentType":5126,"count":27,"max":[0,0.13121983408927917,0,1],"min":[0,-0.13052618503570557,0,0.9913532733917236],"type":"VEC4"},{"bufferView":44,"componentType":5126,"count":50,"max":[3],"min":[0],"type":"SCALAR"},{"bufferView":45,"componentType":5126,"count":50,"max":[4.185719849720022e-17,1.0625,-0.25],"min":[4.185719849720022e-17,1,-0.25],"type":"VEC3"},{"bufferView":46,"componentType":5126,"count":5,"max":[2],"min":[0],"type":"SCALAR"},{"bufferView":47,"componentType":5126,"count":5,"max":[1.024999976158142,1,1],"min":[0.9750000238418579,1,1],"type":"VEC3"},{"bufferView":48,"componentType":5126,"count":42,"max":[2.375],"min":[0],"type":"SCALAR"},{"bufferView":49,"componentType":5126,"count":42,"max":[0,0.37637585401535034,0,1],"min":[0,-0.3346293270587921,0,0.9264670610427856],"type":"VEC4"},{"bufferView":50,"componentType":5126,"count":52,"max":[3.0833332538604736],"min":[0],"type":"SCALAR"},{"bufferView":51,"componentType":5126,"count":52,"max":[2.5293388149942346e-17,1.703125,-8.953411222080097e-18],"min":[2.5293388149942346e-17,1.640625,-8.953411222080097e-18],"type":"VEC3"}],"materials":[{"pbrMetallicRoughness":{"metallicFactor":0,"roughnessFactor":1,"baseColorTexture":{"index":0}},"alphaMode":"MASK","alphaCutoff":0.05,"doubleSided":true},{"pbrMetallicRoughness":{"metallicFactor":0,"roughnessFactor":1,"baseColorTexture":{"index":1}},"alphaMode":"MASK","alphaCutoff":0.05,"doubleSided":true}],"textures":[{"sampler":0,"source":0},{"sampler":1,"source":1}],"samplers":[{"magFilter":9728,"minFilter":9728,"wrapS":33071,"wrapT":33071},{"magFilter":9728,"minFilter":9728,"wrapS":33071,"wrapT":33071}],"images":[{"mimeType":"image/png","uri":"data:image/png;base64,"},{"mimeType":"image/png","uri":"data:image/png;base64,"}],"meshes":[{"primitives":[{"mode":4,"attributes":{"POSITION":0,"NORMAL":1,"TEXCOORD_0":2,"JOINTS_0":3,"WEIGHTS_0":4},"indices":5,"material":0}]},{"primitives":[{"mode":4,"attributes":{"POSITION":6,"NORMAL":7,"TEXCOORD_0":8,"JOINTS_0":9,"WEIGHTS_0":10},"indices":11,"material":1}]},{"primitives":[{"mode":4,"attributes":{"POSITION":12,"NORMAL":13,"TEXCOORD_0":14,"JOINTS_0":15,"WEIGHTS_0":16},"indices":17,"material":1}]},{"primitives":[{"mode":4,"attributes":{"POSITION":18,"NORMAL":19,"TEXCOORD_0":20,"JOINTS_0":21,"WEIGHTS_0":22},"indices":23,"material":1}]}],"skins":[{"inverseBindMatrices":24,"joints":[0],"skeleton":0},{"inverseBindMatrices":25,"joints":[4,2,3],"skeleton":4},{"inverseBindMatrices":26,"joints":[6],"skeleton":6},{"inverseBindMatrices":27,"joints":[8],"skeleton":8}],"animations":[{"name":"breathe","samplers":[{"input":28,"output":29,"interpolation":"LINEAR"},{"input":30,"output":31,"interpolation":"LINEAR"},{"input":32,"output":33,"interpolation":"LINEAR"},{"input":34,"output":35,"interpolation":"LINEAR"},{"input":36,"output":37,"interpolation":"LINEAR"}],"channels":[{"sampler":0,"target":{"node":2,"path":"rotation"}},{"sampler":1,"target":{"node":3,"path":"rotation"}},{"sampler":2,"target":{"node":4,"path":"translation"}},{"sampler":3,"target":{"node":4,"path":"scale"}},{"sampler":4,"target":{"node":0,"path":"translation"}}]},{"name":"look_around","samplers":[{"input":38,"output":39,"interpolation":"LINEAR"},{"input":40,"output":41,"interpolation":"LINEAR"},{"input":42,"output":43,"interpolation":"LINEAR"},{"input":44,"output":45,"interpolation":"LINEAR"},{"input":46,"output":47,"interpolation":"LINEAR"},{"input":48,"output":49,"interpolation":"LINEAR"},{"input":50,"output":51,"interpolation":"LINEAR"}],"channels":[{"sampler":0,"target":{"node":2,"path":"rotation"}},{"sampler":1,"target":{"node":3,"path":"rotation"}},{"sampler":2,"target":{"node":4,"path":"rotation"}},{"sampler":3,"target":{"node":4,"path":"translation"}},{"sampler":4,"target":{"node":4,"path":"scale"}},{"sampler":5,"target":{"node":0,"path":"rotation"}},{"sampler":6,"target":{"node":0,"path":"translation"}}]}]}