{"accessors" : [{"bufferView" : 0, "byteOffset" : 0, "componentType" : 5123, "count" : 4770, "type" : "SCALAR", "max" : [4723], "min" : [0]}, {"bufferView" : 1, "byteOffset" : 0, "componentType" : 5126, "count" : 4724, "type" : "VEC3", "max" : [0.19561399519443512, 0.3896139860153198, 0.18613499402999878], "min" : [-0.16089700162410736, -0.007278000004589558, -0.14562800526618958], "name" : "POSITION"}, {"bufferView" : 1, "byteOffset" : 12, "componentType" : 5126, "count" : 4724, "type" : "VEC3", "max" : [0.9998542070388794, 0.9998398423194885, 0.9988905191421509], "min" : [-0.9996271729469299, -0.999336302280426, -0.9998608231544495], "name" : "NORMAL"}], "asset" : {"generator" : "Aspose.3D 24.1.0", "version" : "2.0"}, "buffers" : [{"uri" : "data:application/octet-stream;base64,", "byteLength" : 124028}], "bufferViews" : [{"buffer" : 0, "byteOffset" : 0, "byteLength" : 9540, "target" : 34963}, {"buffer" : 0, "byteOffset" : 9544, "byteLength" : 114480, "byteStride" : 24, "target" : 34962}], "meshes" : [{"primitives" : [{"attributes" : {"POSITION" : 1, "NORMAL" : 2}, "indices" : 0, "mode" : 4}], "name" : ""}], "nodes" : [{"mesh" : 0, "name" : "Coral.003_CoralMesh.004"}], "scene" : 0, "scenes" : [{"nodes" : [0]}]}