{
  "accessors": [
    {
      "bufferView": 2,
      "componentType": 5126,
      "count": 1667,
      "max": [
        5.0467000007629395,
        0.6284099817276001,
        3.5143699645996094
      ],
      "min": [
        -4.538070201873779,
        -0.6284099817276001,
        -3.5143699645996094
      ],
      "type": "VEC3"
    },
    {
      "bufferView": 2,
      "byteOffset": 20004,
      "componentType": 5126,
      "count": 1667,
      "max": [
        0.9902516603469849,
        1.0,
        1.0
      ],
      "min": [
        -1.0,
        -1.0,
        -1.0
      ],
      "type": "VEC3"
    },
    {
      "bufferView": 1,
      "componentType": 5126,
      "count": 1667,
      "max": [
        0.9954000115394592,
        0.9950100183486938
      ],
      "min": [
        0.004600000102072954,
        0.004989999812096357
      ],
      "type": "VEC2"
    },
    {
      "bufferView": 0,
      "componentType": 5125,
      "count": 2736,
      "type": "SCALAR"
    }
  ],
  "asset": {
    "extras": {
      "author": "Dakotes (https://sketchfab.com/lantripdakota)",
      "license": "CC-BY-4.0 (http://creativecommons.org/licenses/by/4.0/)",
      "source": "https://sketchfab.com/3d-models/toon-low-poly-anchor-eae6dca44f934789920ea38bb9de2e2a",
      "title": "Toon Low-Poly Anchor"
    },
    "generator": "Sketchfab-12.66.0",
    "version": "2.0"
  },
  "bufferViews": [
    {
      "buffer": 0,
      "byteLength": 10944,
      "name": "floatBufferViews",
      "target": 34963
    },
    {
      "buffer": 0,
      "byteLength": 13336,
      "byteOffset": 10944,
      "byteStride": 8,
      "name": "floatBufferViews",
      "target": 34962
    },
    {
      "buffer": 0,
      "byteLength": 40008,
      "byteOffset": 24280,
      "byteStride": 12,
      "name": "floatBufferViews",
      "target": 34962
    }
  ],
  "buffers": [
    {
      "byteLength": 64288,
      "uri": "scene.bin"
    }
  ],
  "images": [
    {
      "uri": "textures/Anchor_baseColor.png"
    }
  ],
  "materials": [
    {
      "doubleSided": true,
      "name": "Anchor",
      "pbrMetallicRoughness": {
        "baseColorTexture": {
          "index": 0
        },
        "metallicFactor": 0.0,
        "roughnessFactor": 0.6
      }
    }
  ],
  "meshes": [
    {
      "name": "Anchor_0",
      "primitives": [
        {
          "attributes": {
            "NORMAL": 1,
            "POSITION": 0,
            "TEXCOORD_0": 2
          },
          "indices": 3,
          "material": 0,
          "mode": 4
        }
      ]
    }
  ],
  "nodes": [
    {
      "children": [
        1
      ],
      "matrix": [
        1.0,
        0.0,
        0.0,
        0.0,
        0.0,
        2.220446049250313e-16,
        -1.0,
        0.0,
        0.0,
        1.0,
        2.220446049250313e-16,
        0.0,
        0.0,
        0.0,
        0.0,
        1.0
      ],
      "name": "Sketchfab_model"
    },
    {
      "children": [
        2
      ],
      "name": "Root"
    },
    {
      "children": [
        3
      ],
      "matrix": [
        0.0,
        -1.0,
        0.0,
        0.0,
        -0.0,
        -0.0,
        -1.0,
        0.0,
        1.0,
        0.0,
        -0.0,
        0.0,
        0.0,
        -0.27231000000000005,
        -0.0,
        1.0
      ],
      "name": "Anchor"
    },
    {
      "mesh": 0,
      "name": "Anchor_0"
    }
  ],
  "samplers": [
    {
      "magFilter": 9729,
      "minFilter": 9987,
      "wrapS": 10497,
      "wrapT": 10497
    }
  ],
  "scene": 0,
  "scenes": [
    {
      "name": "Sketchfab_Scene",
      "nodes": [
        0
      ]
    }
  ],
  "textures": [
    {
      "sampler": 0,
      "source": 0
    }
  ]
}
