{
  "accessors": [
    {
      "bufferView": 2,
      "componentType": 5126,
      "count": 26,
      "max": [
        203.89874267578125,
        96.47052001953125,
        -0.5078125
      ],
      "min": [
        163.136962890625,
        -6.69671630859375,
        -27.96307373046875
      ],
      "type": "VEC3"
    },
    {
      "bufferView": 2,
      "byteOffset": 312,
      "componentType": 5126,
      "count": 26,
      "max": [
        0.9607111811637878,
        0.36495471000671387,
        0.5656024217605591
      ],
      "min": [
        -0.9361327290534973,
        -0.4519430100917816,
        -0.6014378666877747
      ],
      "type": "VEC3"
    },
    {
      "bufferView": 1,
      "componentType": 5126,
      "count": 26,
      "max": [
        0.7499998211860657,
        0.8749998807907104
      ],
      "min": [
        0.2500491142272949,
        0.0
      ],
      "type": "VEC2"
    },
    {
      "bufferView": 0,
      "componentType": 5125,
      "count": 90,
      "type": "SCALAR"
    },
    {
      "bufferView": 2,
      "byteOffset": 624,
      "componentType": 5126,
      "count": 1116,
      "max": [
        171.2371826171875,
        144.21414184570313,
        206.16326904296875
      ],
      "min": [
        -203.54617309570313,
        -1.9998512268066406,
        -274.5323181152344
      ],
      "type": "VEC3"
    },
    {
      "bufferView": 2,
      "byteOffset": 14016,
      "componentType": 5126,
      "count": 1116,
      "max": [
        0.9988283514976501,
        0.9973503351211548,
        0.9878270626068115
      ],
      "min": [
        -0.9997065663337708,
        -1.0,
        -0.9910603761672974
      ],
      "type": "VEC3"
    },
    {
      "bufferView": 1,
      "byteOffset": 208,
      "componentType": 5126,
      "count": 1116,
      "max": [
        0.875,
        1.0162763595581055
      ],
      "min": [
        0.12318290770053864,
        -0.0005597901763394475
      ],
      "type": "VEC2"
    },
    {
      "bufferView": 0,
      "byteOffset": 360,
      "componentType": 5125,
      "count": 1974,
      "type": "SCALAR"
    },
    {
      "bufferView": 2,
      "byteOffset": 27408,
      "componentType": 5126,
      "count": 639,
      "max": [
        213.19189453125,
        327.0399475097656,
        301.31610107421875
      ],
      "min": [
        -199.70196533203125,
        -42.59291076660156,
        -301.31610107421875
      ],
      "type": "VEC3"
    },
    {
      "bufferView": 2,
      "byteOffset": 35076,
      "componentType": 5126,
      "count": 639,
      "max": [
        0.998828649520874,
        0.9977784752845764,
        0.9941489696502686
      ],
      "min": [
        -0.9988285303115845,
        -0.9973505139350891,
        -0.998677134513855
      ],
      "type": "VEC3"
    },
    {
      "bufferView": 1,
      "byteOffset": 9136,
      "componentType": 5126,
      "count": 639,
      "max": [
        0.8731892108917236,
        1.0
      ],
      "min": [
        0.0,
        -0.00023013300960883498
      ],
      "type": "VEC2"
    },
    {
      "bufferView": 0,
      "byteOffset": 8256,
      "componentType": 5125,
      "count": 1542,
      "type": "SCALAR"
    },
    {
      "bufferView": 2,
      "byteOffset": 42744,
      "componentType": 5126,
      "count": 186,
      "max": [
        211.20599365234375,
        125.54581451416016,
        -58.69032287597656
      ],
      "min": [
        163.34432983398438,
        36.79780197143555,
        -96.51365661621094
      ],
      "type": "VEC3"
    },
    {
      "bufferView": 2,
      "byteOffset": 44976,
      "componentType": 5126,
      "count": 186,
      "max": [
        0.9444303512573242,
        0.9596362709999084,
        0.9631396532058716
      ],
      "min": [
        -0.9550608396530151,
        -0.9154314398765564,
        -0.9569198489189148
      ],
      "type": "VEC3"
    },
    {
      "bufferView": 1,
      "byteOffset": 14248,
      "componentType": 5126,
      "count": 186,
      "max": [
        0.875,
        1.0
      ],
      "min": [
        0.125,
        -0.007434135302901268
      ],
      "type": "VEC2"
    },
    {
      "bufferView": 0,
      "byteOffset": 14424,
      "componentType": 5125,
      "count": 270,
      "type": "SCALAR"
    },
    {
      "bufferView": 2,
      "byteOffset": 47208,
      "componentType": 5126,
      "count": 142,
      "max": [
        165.35525512695313,
        166.52499389648438,
        300.4351501464844
      ],
      "min": [
        -101.640380859375,
        5.684341886080802e-14,
        -301.31610107421875
      ],
      "type": "VEC3"
    },
    {
      "bufferView": 2,
      "byteOffset": 48912,
      "componentType": 5126,
      "count": 142,
      "max": [
        0.9994232654571533,
        1.0,
        0.9994232654571533
      ],
      "min": [
        -0.9994232058525085,
        -1.0,
        -0.9994232058525085
      ],
      "type": "VEC3"
    },
    {
      "bufferView": 1,
      "byteOffset": 15736,
      "componentType": 5126,
      "count": 142,
      "max": [
        0.875,
        1.0
      ],
      "min": [
        0.125,
        0.0
      ],
      "type": "VEC2"
    },
    {
      "bufferView": 0,
      "byteOffset": 15504,
      "componentType": 5125,
      "count": 228,
      "type": "SCALAR"
    },
    {
      "bufferView": 2,
      "byteOffset": 50616,
      "componentType": 5126,
      "count": 246,
      "max": [
        -84.97698974609375,
        59.790313720703125,
        244.68020629882813
      ],
      "min": [
        -213.19189453125,
        -0.5841751098632813,
        109.15042877197266
      ],
      "type": "VEC3"
    },
    {
      "bufferView": 2,
      "byteOffset": 53568,
      "componentType": 5126,
      "count": 246,
      "max": [
        0.9848842620849609,
        0.9997934699058533,
        0.9931260347366333
      ],
      "min": [
        -0.9887635111808777,
        -0.9997934699058533,
        -0.9922450184822083
      ],
      "type": "VEC3"
    },
    {
      "bufferView": 1,
      "byteOffset": 16872,
      "componentType": 5126,
      "count": 246,
      "max": [
        0.65625,
        1.0
      ],
      "min": [
        0.34375,
        1.4901161193847656e-08
      ],
      "type": "VEC2"
    },
    {
      "bufferView": 0,
      "byteOffset": 16416,
      "componentType": 5125,
      "count": 432,
      "type": "SCALAR"
    },
    {
      "bufferView": 2,
      "byteOffset": 56520,
      "componentType": 5126,
      "count": 58,
      "max": [
        118.50133514404297,
        312.7510681152344,
        52.59312438964844
      ],
      "min": [
        -118.46150207519531,
        26.7584228515625,
        -62.3043212890625
      ],
      "type": "VEC3"
    },
    {
      "bufferView": 2,
      "byteOffset": 57216,
      "componentType": 5126,
      "count": 58,
      "max": [
        0.5173722505569458,
        0.5979621410369873,
        0.96141117811203
      ],
      "min": [
        -0.5484616756439209,
        -0.6325031518936157,
        -0.9756101965904236
      ],
      "type": "VEC3"
    },
    {
      "bufferView": 1,
      "byteOffset": 18840,
      "componentType": 5126,
      "count": 58,
      "max": [
        1.0,
        1.0
      ],
      "min": [
        0.0,
        0.0
      ],
      "type": "VEC2"
    },
    {
      "bufferView": 0,
      "byteOffset": 18144,
      "componentType": 5125,
      "count": 336,
      "type": "SCALAR"
    }
  ],
  "asset": {
    "extras": {
      "author": "Cleo Renshaw (https://sketchfab.com/cleorenshaw)",
      "license": "CC-BY-4.0 (http://creativecommons.org/licenses/by/4.0/)",
      "source": "https://sketchfab.com/3d-models/stylised-medieval-buildings-shipwreck-a7fefb41bbb943b28575ae6424def395",
      "title": "Stylised Medieval Buildings - Shipwreck"
    },
    "generator": "Sketchfab-15.21.0",
    "version": "2.0"
  },
  "bufferViews": [
    {
      "buffer": 0,
      "byteLength": 19488,
      "name": "floatBufferViews",
      "target": 34963
    },
    {
      "buffer": 0,
      "byteLength": 19304,
      "byteOffset": 19488,
      "byteStride": 8,
      "name": "floatBufferViews",
      "target": 34962
    },
    {
      "buffer": 0,
      "byteLength": 57912,
      "byteOffset": 38792,
      "byteStride": 12,
      "name": "floatBufferViews",
      "target": 34962
    }
  ],
  "buffers": [
    {
      "byteLength": 96704,
      "uri": "scene.bin"
    }
  ],
  "materials": [
    {
      "doubleSided": true,
      "name": "SwordMetal",
      "pbrMetallicRoughness": {
        "baseColorFactor": [
          0.923,
          0.967586,
          1.0,
          1.0
        ],
        "metallicFactor": 0.0,
        "roughnessFactor": 0.8942628736559436
      }
    },
    {
      "doubleSided": true,
      "name": "Metal",
      "pbrMetallicRoughness": {
        "baseColorFactor": [
          0.328335,
          0.337051,
          0.413,
          1.0
        ],
        "metallicFactor": 0.0,
        "roughnessFactor": 0.6
      }
    },
    {
      "doubleSided": true,
      "name": "Wood",
      "pbrMetallicRoughness": {
        "baseColorFactor": [
          0.238,
          0.201139,
          0.170884,
          1.0
        ],
        "metallicFactor": 0.0,
        "roughnessFactor": 0.6
      }
    },
    {
      "doubleSided": true,
      "name": "Sack",
      "pbrMetallicRoughness": {
        "baseColorFactor": [
          0.473917,
          0.482,
          0.429462,
          1.0
        ],
        "metallicFactor": 0.0,
        "roughnessFactor": 0.6
      }
    },
    {
      "doubleSided": true,
      "name": "Dirt",
      "pbrMetallicRoughness": {
        "baseColorFactor": [
          0.238,
          0.17498,
          0.105196,
          1.0
        ],
        "metallicFactor": 0.0,
        "roughnessFactor": 0.6
      }
    },
    {
      "doubleSided": true,
      "name": "Thatch",
      "pbrMetallicRoughness": {
        "baseColorFactor": [
          1.0,
          0.8519,
          0.4901,
          1.0
        ],
        "metallicFactor": 0.0,
        "roughnessFactor": 0.6
      }
    },
    {
      "doubleSided": true,
      "name": "Flag",
      "pbrMetallicRoughness": {
        "baseColorFactor": [
          0.3581,
          0.1053,
          0.1719,
          1.0
        ],
        "metallicFactor": 0.0,
        "roughnessFactor": 0.6
      }
    }
  ],
  "meshes": [
    {
      "name": "MESH_Ship_SwordMetal_0",
      "primitives": [
        {
          "attributes": {
            "NORMAL": 1,
            "POSITION": 0,
            "TEXCOORD_0": 2
          },
          "indices": 3,
          "material": 0,
          "mode": 4
        }
      ]
    },
    {
      "name": "MESH_Ship_Metal_0",
      "primitives": [
        {
          "attributes": {
            "NORMAL": 5,
            "POSITION": 4,
            "TEXCOORD_0": 6
          },
          "indices": 7,
          "material": 1,
          "mode": 4
        }
      ]
    },
    {
      "name": "MESH_Ship_Wood_0",
      "primitives": [
        {
          "attributes": {
            "NORMAL": 9,
            "POSITION": 8,
            "TEXCOORD_0": 10
          },
          "indices": 11,
          "material": 2,
          "mode": 4
        }
      ]
    },
    {
      "name": "MESH_Ship_Sack_0",
      "primitives": [
        {
          "attributes": {
            "NORMAL": 13,
            "POSITION": 12,
            "TEXCOORD_0": 14
          },
          "indices": 15,
          "material": 3,
          "mode": 4
        }
      ]
    },
    {
      "name": "MESH_Ship_Dirt_0",
      "primitives": [
        {
          "attributes": {
            "NORMAL": 17,
            "POSITION": 16,
            "TEXCOORD_0": 18
          },
          "indices": 19,
          "material": 4,
          "mode": 4
        }
      ]
    },
    {
      "name": "MESH_Ship_Thatch_0",
      "primitives": [
        {
          "attributes": {
            "NORMAL": 21,
            "POSITION": 20,
            "TEXCOORD_0": 22
          },
          "indices": 23,
          "material": 5,
          "mode": 4
        }
      ]
    },
    {
      "name": "MESH_Ship_Flag_0",
      "primitives": [
        {
          "attributes": {
            "NORMAL": 25,
            "POSITION": 24,
            "TEXCOORD_0": 26
          },
          "indices": 27,
          "material": 6,
          "mode": 4
        }
      ]
    }
  ],
  "nodes": [
    {
      "children": [
        1
      ],
      "matrix": [
        1.0,
        0.0,
        0.0,
        0.0,
        0.0,
        2.220446049250313e-16,
        -1.0,
        0.0,
        0.0,
        1.0,
        2.220446049250313e-16,
        0.0,
        0.0,
        0.0,
        0.0,
        1.0
      ],
      "name": "Sketchfab_model"
    },
    {
      "children": [
        2
      ],
      "matrix": [
        0.009999999776482582,
        0.0,
        0.0,
        0.0,
        0.0,
        0.0,
        0.009999999776482582,
        0.0,
        0.0,
        -0.009999999776482582,
        0.0,
        0.0,
        0.0,
        0.0,
        0.0,
        1.0
      ],
      "name": "2d719eb606f0488bae0c2bfc0c2633d8.fbx"
    },
    {
      "children": [
        3
      ],
      "name": "RootNode"
    },
    {
      "children": [
        4,
        5,
        6,
        7,
        8,
        9,
        10
      ],
      "name": "MESH_Ship"
    },
    {
      "mesh": 0,
      "name": "MESH_Ship_SwordMetal_0"
    },
    {
      "mesh": 1,
      "name": "MESH_Ship_Metal_0"
    },
    {
      "mesh": 2,
      "name": "MESH_Ship_Wood_0"
    },
    {
      "mesh": 3,
      "name": "MESH_Ship_Sack_0"
    },
    {
      "mesh": 4,
      "name": "MESH_Ship_Dirt_0"
    },
    {
      "mesh": 5,
      "name": "MESH_Ship_Thatch_0"
    },
    {
      "mesh": 6,
      "name": "MESH_Ship_Flag_0"
    }
  ],
  "scene": 0,
  "scenes": [
    {
      "name": "Sketchfab_Scene",
      "nodes": [
        0
      ]
    }
  ]
}
