{"asset":{"version":"2.0","generator":"Blockbench 4.9.1 glTF exporter"},"scenes":[{"nodes":[0,1,2,4,5,6],"name":"blockbench_export"}],"scene":0,"nodes":[{"translation":[2.529338745617796e-17,1.75,-8.953411488912552e-18],"name":"sphere","mesh":0},{"translation":[4.185719871066619e-17,1.0625,-0.25],"name":"sphere","mesh":1},{"rotation":[-0.08715574274765817,0,0,0.9961946980917455],"translation":[-0.4799053596117877,0.8656348305080799,-0.01694593821065761],"name":"sphere","mesh":2},{"name":"bone"},{"translation":[0,0.25,0],"name":"bone","mesh":3,"children":[3],"skin":0},{"rotation":[-0.3624380382837016,0,0,0.9320078692827986],"translation":[-0.25,0.1931497563551922,-0.1685120073464496],"name":"sphere","mesh":4},{"rotation":[-0.3624380382837016,0,0,0.9320078692827986],"translation":[0.25,0.1931497563551922,-0.1685120073464496],"name":"sphere","mesh":5}],"bufferViews":[{"buffer":0,"byteOffset":0,"byteLength":3168,"target":34962,"byteStride":12},{"buffer":0,"byteOffset":3168,"byteLength":3168,"target":34962,"byteStride":12},{"buffer":0,"byteOffset":6336,"byteLength":2112,"target":34962,"byteStride":8},{"buffer":0,"byteOffset":8448,"byteLength":720,"target":34963},{"buffer":0,"byteOffset":9168,"byteLength":3168,"target":34962,"byteStride":12},{"buffer":0,"byteOffset":12336,"byteLength":3168,"target":34962,"byteStride":12},{"buffer":0,"byteOffset":15504,"byteLength":2112,"target":34962,"byteStride":8},{"buffer":0,"byteOffset":17616,"byteLength":720,"target":34963},{"buffer":0,"byteOffset":18336,"byteLength":10656,"target":34962,"byteStride":12},{"buffer":0,"byteOffset":28992,"byteLength":10656,"target":34962,"byteStride":12},{"buffer":0,"byteOffset":39648,"byteLength":7104,"target":34962,"byteStride":8},{"buffer":0,"byteOffset":46752,"byteLength":2304,"target":34963},{"buffer":0,"byteOffset":49056,"byteLength":7776,"target":34962,"byteStride":12},{"buffer":0,"byteOffset":56832,"byteLength":7776,"target":34962,"byteStride":12},{"buffer":0,"byteOffset":64608,"byteLength":5184,"target":34962,"byteStride":8},{"buffer":0,"byteOffset":69792,"byteLength":5184,"target":34962,"byteStride":8},{"buffer":0,"byteOffset":74976,"byteLength":10368,"target":34962,"byteStride":16},{"buffer":0,"byteOffset":85344,"byteLength":1728,"target":34963},{"buffer":0,"byteOffset":87072,"byteLength":3168,"target":34962,"byteStride":12},{"buffer":0,"byteOffset":90240,"byteLength":3168,"target":34962,"byteStride":12},{"buffer":0,"byteOffset":93408,"byteLength":2112,"target":34962,"byteStride":8},{"buffer":0,"byteOffset":95520,"byteLength":720,"target":34963},{"buffer":0,"byteOffset":96240,"byteLength":3168,"target":34962,"byteStride":12},{"buffer":0,"byteOffset":99408,"byteLength":3168,"target":34962,"byteStride":12},{"buffer":0,"byteOffset":102576,"byteLength":2112,"target":34962,"byteStride":8},{"buffer":0,"byteOffset":104688,"byteLength":720,"target":34963},{"buffer":0,"byteOffset":105408,"byteLength":64}],"buffers":[{"byteLength":105472,"uri":"data:application/octet-stream;base64,"}],"accessors":[{"bufferView":0,"componentType":5126,"count":264,"max":[0.4375,0.4375,0.4375],"min":[-0.4375,-0.4375,-0.4375],"type":"VEC3"},{"bufferView":1,"componentType":5126,"count":264,"max":[0.9659258127212524,0.9659258127212524,0.9659258127212524],"min":[-0.9659258127212524,-0.9659258127212524,-0.9659258127212524],"type":"VEC3"},{"bufferView":2,"componentType":5126,"count":264,"max":[0.6332372426986694,0.59375],"min":[0.002466937294229865,0],"type":"VEC2"},{"bufferView":3,"componentType":5123,"count":360,"max":[263],"min":[0],"type":"SCALAR"},{"bufferView":4,"componentType":5126,"count":264,"max":[0.6875,0.9375,0.5],"min":[-0.6875,-0.9375,-0.5],"type":"VEC3"},{"bufferView":5,"componentType":5126,"count":264,"max":[0.9812362790107727,0.939264714717865,0.9899426698684692],"min":[-0.9812362790107727,-0.9271857738494873,-0.9899426698684692],"type":"VEC3"},{"bufferView":6,"componentType":5126,"count":264,"max":[0.5364254713058472,0.41350775957107544],"min":[0,0],"type":"VEC2"},{"bufferView":7,"componentType":5123,"count":360,"max":[263],"min":[0],"type":"SCALAR"},{"bufferView":8,"componentType":5126,"count":888,"max":[0.2672851085662842,0.7604749202728271,0.30696362257003784],"min":[-0.2738591730594635,-0.7092531323432922,-0.30781808495521545],"type":"VEC3"},{"bufferView":9,"componentType":5126,"count":888,"max":[1,0.9998037815093994,0.9955244064331055],"min":[-1,-0.9996895790100098,-0.9955244064331055],"type":"VEC3"},{"bufferView":10,"componentType":5126,"count":888,"max":[0.6531515717506409,0.6777753829956055],"min":[0,0],"type":"VEC2"},{"bufferView":11,"componentType":5123,"count":1152,"max":[887],"min":[0],"type":"SCALAR"},{"bufferView":12,"componentType":5126,"count":648,"max":[0.8368097543716431,1.375,-0.0053901406936347485],"min":[0.2750000059604645,0.602245569229126,-0.4375],"type":"VEC3"},{"bufferView":13,"componentType":5126,"count":648,"max":[0.9995922446250916,0.9964000582695007,0.9769868850708008],"min":[-0.9961947202682495,-0.9961947202682495,-0.9903857111930847],"type":"VEC3"},{"bufferView":14,"componentType":5126,"count":648,"max":[0.9583691954612732,0.90625],"min":[0.005818109028041363,0],"type":"VEC2"},{"bufferView":15,"componentType":5123,"count":648,"max":[0,0,0,0],"min":[0,0,0,0],"type":"VEC4"},{"bufferView":16,"componentType":5126,"count":648,"max":[0,1,0,0],"min":[0,1,0,0],"type":"VEC4"},{"bufferView":17,"componentType":5123,"count":864,"max":[647],"min":[0],"type":"SCALAR"},{"bufferView":18,"componentType":5126,"count":264,"max":[0.1875,0.25,0.1875],"min":[-0.1875,-0.25,-0.1875],"type":"VEC3"},{"bufferView":19,"componentType":5126,"count":264,"max":[0.9803988933563232,0.9417052865028381,0.9803988933563232],"min":[-0.9803988933563232,-0.9417052865028381,-0.9803988933563232],"type":"VEC3"},{"bufferView":20,"componentType":5126,"count":264,"max":[0.06698749959468842,0.06470626592636108],"min":[0,0],"type":"VEC2"},{"bufferView":21,"componentType":5123,"count":360,"max":[263],"min":[0],"type":"SCALAR"},{"bufferView":22,"componentType":5126,"count":264,"max":[0.1875,0.25,0.1875],"min":[-0.1875,-0.25,-0.1875],"type":"VEC3"},{"bufferView":23,"componentType":5126,"count":264,"max":[0.9803988933563232,0.9417052865028381,0.9803988933563232],"min":[-0.9803988933563232,-0.9417052865028381,-0.9803988933563232],"type":"VEC3"},{"bufferView":24,"componentType":5126,"count":264,"max":[0.06698749959468842,0.06470626592636108],"min":[0,0],"type":"VEC2"},{"bufferView":25,"componentType":5123,"count":360,"max":[263],"min":[0],"type":"SCALAR"},{"bufferView":26,"componentType":5126,"count":1,"max":[1,0,0,0,0,1,0,0,0,0,1,0,0,0,0,1],"min":[1,0,0,0,0,1,0,0,0,0,1,0,0,0,0,1],"type":"MAT4"}],"materials":[{"pbrMetallicRoughness":{"metallicFactor":0,"roughnessFactor":1,"baseColorTexture":{"index":0}},"alphaMode":"MASK","alphaCutoff":0.05,"doubleSided":true},{"pbrMetallicRoughness":{"metallicFactor":0,"roughnessFactor":1,"baseColorTexture":{"index":1}},"alphaMode":"MASK","alphaCutoff":0.05,"doubleSided":true},{"pbrMetallicRoughness":{"metallicFactor":0,"roughnessFactor":1,"baseColorTexture":{"index":2}},"alphaMode":"MASK","alphaCutoff":0.05,"doubleSided":true},{"pbrMetallicRoughness":{"metallicFactor":0,"roughnessFactor":1,"baseColorTexture":{"index":3}},"alphaMode":"MASK","alphaCutoff":0.05,"doubleSided":true}],"textures":[{"sampler":0,"source":0},{"sampler":1,"source":1},{"sampler":2,"source":2},{"sampler":3,"source":3}],"samplers":[{"magFilter":9728,"minFilter":9728,"wrapS":33071,"wrapT":33071},{"magFilter":9728,"minFilter":9728,"wrapS":33071,"wrapT":33071},{"magFilter":9728,"minFilter":9728,"wrapS":33071,"wrapT":33071},{"magFilter":9728,"minFilter":9728,"wrapS":33071,"wrapT":33071}],"images":[{"mimeType":"image/png","uri":"data:image/png;base64,"},{"mimeType":"image/png","uri":"data:image/png;base64,"},{"mimeType":"image/png","uri":"data:image/png;base64,"},{"mimeType":"image/png","uri":"data:image/png;base64,"}],"meshes":[{"primitives":[{"mode":4,"attributes":{"POSITION":0,"NORMAL":1,"TEXCOORD_0":2},"indices":3,"material":0}]},{"primitives":[{"mode":4,"attributes":{"POSITION":4,"NORMAL":5,"TEXCOORD_0":6},"indices":7,"material":1}]},{"primitives":[{"mode":4,"attributes":{"POSITION":8,"NORMAL":9,"TEXCOORD_0":10},"indices":11,"material":2}]},{"primitives":[{"mode":4,"attributes":{"POSITION":12,"NORMAL":13,"TEXCOORD_0":14,"JOINTS_0":15,"WEIGHTS_0":16},"indices":17,"material":3}]},{"primitives":[{"mode":4,"attributes":{"POSITION":18,"NORMAL":19,"TEXCOORD_0":20},"indices":21,"material":2}]},{"primitives":[{"mode":4,"attributes":{"POSITION":22,"NORMAL":23,"TEXCOORD_0":24},"indices":25,"material":2}]}],"skins":[{"inverseBindMatrices":26,"joints":[3],"skeleton":3}]}